<svg xmlns="http://www.w3.org/2000/svg" width="32" height="32" viewBox="0 0 32 32">
  <path fill="#2563eb" d="M29.41,19.22V12.78l-4.83-1.3a9,9,0,0,0-1.54-2.82l2.58-4.86L21.4,0,16.54,2.58a9,9,0,0,0-2.82-1.54L12.78,2.59H6.34L5,7.42a9,9,0,0,0-2.82,1.54L0,4.17,4.17,0,2.58,4.83a9,9,0,0,0-1.54,2.82L-3.81,9.19v6.44l4.83,1.3a9,9,0,0,0,1.54,2.82L2.58,22.35,6.79,27.18l4.86-2.58a9,9,0,0,0,2.82,1.54l1.3,4.83h6.44l1.3-4.83a9,9,0,0,0,2.82-1.54l4.86,2.58,4.21-4.83-2.58-4.86a9,9,0,0,0,1.54-2.82ZM16,23a7,7,0,1,1,7-7A7,7,0,0,1,16,23Z" transform="translate(3.81 2.82)"/>
</svg>
